# xmcd
#
# Track frame offsets: 
#        150
#        14636
#        34590
#        55610
#        71204
#        90481
#        104167
#        124641
#        140381
#        155173
#        168163
#
# Disc length: 2537 seconds
#
# Revision: 3
# Processed by: cddbd v1.5.2PL0 Copyright (c) Steve Scherf et al.
# Submitted via: ExactAudioCopy v1.0b3
#
DISCID=9409e70b
DTITLE=Miguel - Kaleidoscope Dream
DYEAR=2012
DGENRE=R&B
TTITLE0=ADORN
TTITLE1=Don't Look Back
TTITLE2=Use Me
TTITLE3=Do You...
TTITLE4=Kaleidoscope Dream
TTITLE5=The THRILL
TTITLE6=How many Drinks?
TTITLE7=Where's the Fun in Forever
TTITLE8=ARCH and POINT
TTITLE9=Pussy Is MINE
TTITLE10=Candles in the Sun
EXTD=YEAR: 2012
EXTT0=
EXTT1=
EXTT2=
EXTT3=
EXTT4=
EXTT5=
EXTT6=
EXTT7=
EXTT8=
EXTT9=
EXTT10=
PLAYORDER=
